<svg xmlns="http://www.w3.org/2000/svg" width="48" height="48" id="customer"><g transform="translate(0 -1004.362)"><circle cx="657.054" cy="437.094" r="15.268" fill="#9257a2" fill-rule="evenodd" transform="translate(-1008.842 341.28) scale(1.57193)"></circle><path style="line-height:normal;text-indent:0;text-align:start;text-decoration-line:none;text-decoration-style:solid;text-decoration-color:#000;text-transform:none;block-progression:tb;isolation:auto;mix-blend-mode:normal" fill="#fff" d="M3.5 2a.5.5 0 0 0-.5.5v24.99a.5.5 0 0 0 .5.5h3.779l-.55 1.649a.5.5 0 0 0 .632.632l4.24-1.414a.5.5 0 0 0 .12-.058.5.5 0 0 0 .013-.008.5.5 0 0 0 .002-.002.5.5 0 0 0 .008-.006.5.5 0 0 0 .049-.04.5.5 0 0 0 .02-.018l.779-.78a.5.5 0 0 0 .21.045H22.5a.5.5 0 0 0 .5-.5v-9.66a.5.5 0 0 0-.057-.24l4.387-4.387a.5.5 0 0 0 .025-.023.5.5 0 0 0 .036-.037l1.025-1.024c.097-.097.183-.202.256-.312v-.002c.072-.11.133-.226.182-.346v-.002c.048-.12.085-.244.109-.37v-.001a2.006 2.006 0 0 0 0-.764 1.984 1.984 0 0 0-.547-1.031l-.707-.707A2.001 2.001 0 0 0 26.295 8a2.001 2.001 0 0 0-1.414.584l-1.035 1.035a.5.5 0 0 0-.026.026l-.82.82v-.94a.5.5 0 0 0 0-.033V6.602a.5.5 0 0 0-.232-.432l-4.002-3.992a.455.455 0 0 0-.233-.123.5.5 0 0 0-.232-.055H3.5ZM4 3h13.988v3.547a.455.455 0 0 0 .455.453H22v1.496a.5.5 0 0 0 0 .035v2.662a.5.5 0 0 0 .049.221L20 13.464V9H6v12h6.463l-4.2 4.2a.5.5 0 0 0-.07.091.5.5 0 0 0-.023.043.5.5 0 0 0-.02.047.5.5 0 0 0-.005.015.5.5 0 0 0-.008.024l-.524 1.57H4V3Zm14.898.596 2.504 2.496h-2.504V3.596zM6 4v3h6V4H6Zm1 1h4v1H7V5Zm19.295 3.992c.254 0 .508.1.707.299l.707.707c.298.298.374.72.225 1.08v.002c-.05.12-.126.233-.225.332l-.707.707-.707-.707-.707-.707-.707-.707.707-.707a.997.997 0 0 1 .707-.299zM7 10h1v1H7v-1Zm2 0h6v1H9v-1zm7 0h3v1h-3v-1zm8.174.705.707.707-14.85 14.85-.707-.71 14.85-14.847ZM7 12h1v8H7v-8Zm2 0h6v6.463L13.463 20H9v-8Zm7 0h3v2.465l-3 2.998V12Zm9.588.12.707.706-14.848 14.85-.709-.707 14.85-14.85ZM22 18.534v.957a.5.5 0 0 0 0 .037v7.461h-8.453L22 18.535ZM8.836 26.48l1.684 1.684-2.526.842.842-2.526z" color="#000" font-family="sans-serif" font-weight="400" overflow="visible" transform="translate(11 1012.362)"></path></g></svg>