<svg xmlns="http://www.w3.org/2000/svg" xmlns:xlink="http://www.w3.org/1999/xlink" width="24" height="24" viewBox="0 0 24 24" id="delete"><defs><linearGradient id="a"><stop offset="0" stop-color="#f0f"></stop><stop offset="1" stop-color="#00f"></stop></linearGradient><linearGradient id="c" x1="2" x2="21.95" y1="292.782" y2="312.6" gradientUnits="userSpaceOnUse" xlink:href="#a"></linearGradient><linearGradient id="b" x1="2" x2="21.95" y1="292.782" y2="312.6" gradientUnits="userSpaceOnUse" xlink:href="#a"></linearGradient></defs><g transform="translate(0 -290.65)"><path style="line-height:normal;font-variant-ligatures:normal;font-variant-position:normal;font-variant-caps:normal;font-variant-numeric:normal;font-variant-alternates:normal;font-variant-east-asian:normal;font-feature-settings:normal;font-variation-settings:normal;text-indent:0;text-align:start;text-decoration-line:none;text-decoration-style:solid;text-decoration-color:#000;text-transform:none;text-orientation:mixed;white-space:normal;shape-padding:0;shape-margin:0;inline-size:0;isolation:auto;mix-blend-mode:normal;solid-color:#000;solid-opacity:1" fill="url(#b)" d="m 3,295.65001 c -0.55228,0 -1,0.44772 -1,1 0,0.55228 0.44772,1 1,1 h 1 v 11 c 0,2.1987 1.8013,4 4,4 h 8 c 2.1987,0 4,-1.8013 4,-4 v -11 h 1 c 0.55228,0 1,-0.44772 1,-1 0,-0.55228 -0.44772,-1 -1,-1 -6,0 -12,0 -18,0 z m 3,2 h 12 v 11 c 0,1.1253 -0.8747,2 -2,2 H 8 c -1.1253,0 -2,-0.8747 -2,-2 z" color="#000" enable-background="accumulate" font-family="sans-serif" font-weight="400" overflow="visible"></path><path style="line-height:normal;font-variant-ligatures:normal;font-variant-position:normal;font-variant-caps:normal;font-variant-numeric:normal;font-variant-alternates:normal;font-variant-east-asian:normal;font-feature-settings:normal;font-variation-settings:normal;text-indent:0;text-align:start;text-decoration-line:none;text-decoration-style:solid;text-decoration-color:#000;text-transform:none;text-orientation:mixed;white-space:normal;shape-padding:0;shape-margin:0;inline-size:0;isolation:auto;mix-blend-mode:normal;solid-color:#000;solid-opacity:1" fill="url(#c)" d="m 10,292.65039 a 1,1 0 0 0 -1,1 1,1 0 0 0 1,1 h 4 a 1,1 0 0 0 1,-1 1,1 0 0 0 -1,-1 z" color="#000" enable-background="accumulate" font-family="sans-serif" font-weight="400" overflow="visible"></path></g></svg>