<svg xmlns="http://www.w3.org/2000/svg" xmlns:xlink="http://www.w3.org/1999/xlink" viewBox="0 0 32 32" id="pen"><defs><linearGradient id="a"><stop offset="0" stop-color="#000092"></stop><stop offset="1" stop-color="#ff00f3"></stop></linearGradient><linearGradient id="b" x1="6" x2="24" y1="15.954" y2="15.954" gradientUnits="userSpaceOnUse" xlink:href="#a"></linearGradient></defs><path fill="url(#b)" d="M24.177 5.908a.499.499 0 0 0-.353.147l-1.06 1.06a.5.5 0 0 0-.708 0L7.914 21.258c-.026.026-.04.06-.059.09-.009.015-.025.023-.033.039l-1.416 2.828a.5.5 0 0 0 .094.578l-.354.353a.5.5 0 1 0 .71.708l.353-.354a.497.497 0 0 0 .578.092l2.828-1.414c.017-.008.026-.025.041-.035.03-.02.063-.033.09-.059l13.078-13.08.355.353a.5.5 0 0 1 0 .707l-4.95 4.95a.5.5 0 1 0 .708.707l4.95-4.95a1.501 1.501 0 0 0 0-2.12l-.354-.354.353-.356a.499.499 0 0 0 0-.707l1.061-1.06a.498.498 0 0 0-.002-.705l-1.414-1.414a.499.499 0 0 0-.354-.147Zm0 1.205.708.707-.706.707-.355-.353-.354-.354.707-.707ZM22.41 8.176l1.416 1.414-.354.353-1.533 1.534-2.357-.471 2.828-2.83zm-3.68 3.68 2.356.47-.563.565-2.357-.471.564-.565zm-1.414 1.414 2.358.47-.565.567-2.357-.471.564-.566zm-1.414 1.414 2.358.47-7.87 7.87-.707-.708-.707-.707 6.926-6.925Zm-7.496 7.771.57.57.569.57-1.885.942-.197-.197.943-1.885z"></path></svg>