<svg xmlns="http://www.w3.org/2000/svg" width="655.359" height="655.359" fill-rule="evenodd" clip-rule="evenodd" image-rendering="optimizeQuality" shape-rendering="geometricPrecision" text-rendering="geometricPrecision" viewBox="0 0 6.827 6.827" id="pen"><defs><clipPath id="a"><path d="M3.413 0a3.413 3.413 0 1 1 0 6.827 3.413 3.413 0 0 1 0-6.827z"></path></clipPath></defs><g><path fill="#6a1b9a" d="M3.413 0a3.413 3.413 0 1 1 0 6.827 3.413 3.413 0 0 1 0-6.827z"></path><g clip-path="url(#a)"><g><path fill="#521976" d="m5.31 1.592 3.786 3.786.007.01.007.009.007.01.006.009.007.01.006.01.005.01.006.01.005.01.005.01.004.01.005.01.004.011.004.01.003.011.004.011.003.01.002.012.003.01.002.012.002.01.002.012.001.01.001.012.001.011.001.011v.022L5.414 1.885v-.033L5.41 1.84l-.001-.012-.001-.01-.002-.012-.002-.01-.002-.012-.003-.01-.003-.011-.003-.011-.003-.011-.004-.01-.003-.011-.005-.01-.004-.011-.005-.01-.004-.01-.006-.011-.005-.01-.006-.01-.006-.01-.006-.01-.006-.01-.007-.009-.007-.009z"></path><path fill="#521976" d="M5.413 1.885L9.2 5.671v.022l-.002.012v.011l-.002.011-.001.011-.002.011-.002.011-.002.011-.003.011-.002.011-.003.01-.004.012-.003.01-.004.01-.004.011-.005.01-.004.011-.005.01-.005.01-.006.01-.005.01-.006.01-.007.01-.006.01-.007.01-.007.008-.007.01-.008.009-.008.009-.008.008L9.064 6 5.278 2.214l.008-.009.008-.009.008-.009.008-.009.007-.009.007-.01.007-.009.006-.01.006-.009.006-.01.006-.01.005-.01.006-.01.004-.01.005-.01.004-.01.005-.011.003-.011.004-.01.003-.011.003-.011.003-.011.003-.011.002-.011.002-.011.002-.011.001-.011.001-.011.001-.011v-.012l.001-.01zM4.479 1.699l3.786 3.786-.08-.005-.078.001-.076.008-.074.015-.072.02-.07.026-.068.031-.066.036-.063.04-.061.042-.06.047-.056.049-.055.051-.052.054-.05.055-.047.055-.044.057-.043.056-.04.056-.037.055-.035.054-.032.053-.03.05-.027.048-.024.045-.022.04-.02.038-.015.033-.014.029-.01.023-.008.017-.005.011L3.045 2.89l.005-.011.007-.018.011-.023.013-.028.017-.033.019-.037.021-.042.025-.044.027-.048.03-.05.032-.053.035-.054.037-.055.04-.056.042-.057.045-.056.047-.056.05-.055.052-.053.055-.051.056-.05.06-.046.06-.043.064-.04.066-.035.067-.03.07-.027.072-.02.075-.015.076-.008.078-.002zM2.927 2.848l3.786 3.787-3.787-3.787zM2.231 5.028l3.786 3.786-.026.02-.026.02-.025.018-.025.018-.024.018-.025.017-.023.017-.023.016-.023.015-.022.015-.022.015-.022.014-.02.013-.021.013-.02.012-.02.012-.02.011-.018.01-.019.011-.017.01-.018.009-.017.008-.016.008-.016.008-.015.007-.015.006-.015.006-.014.005-.014.005-.013.005-.012.003-.012.004-3.787-3.787.012-.003.013-.004.013-.004.014-.005.014-.005.014-.006.015-.006.016-.007.016-.008.016-.008.017-.009.017-.009.018-.01.019-.01.018-.01.02-.011.02-.012.02-.013.02-.012.02-.014.022-.014.022-.014.023-.015.022-.016.024-.016.023-.016.024-.017.025-.018.025-.018.025-.019.026-.02z"></path><path fill="#521976" d="M1.612 5.396L5.4 9.183l-.007.001-.007.002H5.38l-.006.002-.007.001H5.36l-.006.002H5.31l-.006-.001-.005-.001-.004-.001-.005-.001-.005-.002-.005-.001-.004-.002-.004-.001-.005-.002-.004-.002-.004-.003-.004-.002-.004-.002-.003-.003-.004-.003-3.786-3.786.003.003.004.002.004.003.004.002.004.002.004.002.004.002.005.002.004.002.005.001.004.002h.005l.005.002h.005l.005.001h.006l.005.001H1.568l.006-.001.006-.001.006-.001.007-.001.006-.002.007-.001zM3.045 2.889L6.83 6.675v.002L3.043 2.891z"></path><path fill="#521976" d="M3.044 2.89 6.83 6.678 3.044 2.891z"></path><path fill="#521976" d="M3.044 2.89 6.83 6.678 3.044 2.892z"></path><path fill="#521976" d="M3.044 2.891 6.83 6.678l-.016.04-.018.039-.02.034-.02.032-.021.03-.023.025-.023.024-.025.021-.024.019-.026.017-.025.014-.026.013-.025.01-.026.01-.026.007-.025.005-.024.005-.024.003-.024.003-.022.001h-.061l-.017-.002-.016-.001-.014-.002-.013-.002-.01-.002-.009-.002h-.006l-.004-.002h-.001L2.429 3.23h.006l.006.002.008.002.011.002.012.002.015.001.016.002.017.001.02.001h.04l.023-.002.023-.002.024-.003.025-.005.025-.006.026-.007.025-.009.026-.01.026-.013.025-.015.025-.016.025-.02.024-.02.024-.024.022-.026.022-.03.02-.03.02-.036.017-.038z"></path><path fill="#521976" d="m2.43 3.23 3.786 3.787-.006-.002-.006-.002-.006-.003-.005-.004-.004-.004-3.787-3.786.005.004.005.003.006.003.005.003z"></path><path fill="#521976" d="m3.481 3.952 3.787 3.786-.05.046-.05.046-.05.045-.047.043-.047.043-.047.042-.046.041-.045.04-.044.04-.043.039-.043.038-.042.037-.042.036-.04.035-.04.035-.04.034-.038.033-.038.032-.037.031-.036.03-.036.03-.035.03-.035.028-.033.028-.033.027-.033.026-.032.025-.03.025-.031.024-.03.023-.03.022-.028.022-3.786-3.786.029-.022.029-.022.03-.024.03-.024.031-.024.032-.026.032-.026.033-.027.034-.027.034-.029.036-.029.035-.03.037-.03.037-.032.038-.032.038-.033.04-.033.04-.035.04-.035.041-.037.042-.037.043-.037.044-.039.044-.04.045-.04.046-.041.046-.042.048-.043.048-.044.048-.044.05-.046z"></path><path fill="#521976" d="M5.278 2.214 9.064 6l-.067.067-.066.066-.065.065-.065.064-.064.064-.064.062-.062.062-.062.061-.061.06-.06.06-.06.058-.06.058-.058.057-.058.056-.057.055-.056.055-.056.053-.055.053-.054.052-.054.052-.053.05-.052.05-.052.05-.05.048-.05.047-.05.047-.05.046-.048.046-.048.044-.047.044-.047.043-.045.043L3.48 3.952l.046-.043.047-.043.047-.044.048-.045.048-.045.05-.046.049-.047.05-.048.051-.048.052-.049.052-.05.053-.05.054-.052.054-.052.055-.053.056-.054.056-.054.057-.056.058-.056.058-.057.06-.057.059-.059.06-.06.062-.06.062-.06.062-.062.063-.063.064-.063.065-.064.066-.066.066-.066z"></path><path fill="#521976" d="M5.278 1.557a.463.463 0 0 1 0 .657A64.399 64.399 0 0 1 3.48 3.952c-.54.5-.949.847-1.25 1.076-.281.214-.492.337-.619.368-.071.018-.125.01-.161-.024-.037-.035-.047-.09-.029-.162.031-.122.152-.327.374-.614.23-.296.576-.699 1.077-1.237.421-.454.95-1.001 1.606-1.66-.865-.1-1.398 1.104-1.434 1.19l-.001.002c-.166.457-.613.34-.615.34a.062.062 0 0 1 .03-.121c.001 0 .341.088.468-.262a.063.063 0 0 1 .003-.008c.04-.095.646-1.462 1.657-1.25l.034-.033a.463.463 0 0 1 .657 0z"></path></g></g><path fill="none" d="M3.413 0a3.413 3.413 0 1 1 0 6.827 3.413 3.413 0 0 1 0-6.827z"></path><path fill="#fffffe" fill-rule="nonzero" d="M5.278 1.557a.463.463 0 0 1 0 .657A64.399 64.399 0 0 1 3.48 3.952c-.54.5-.949.847-1.25 1.076-.281.214-.492.337-.619.368-.071.018-.125.01-.161-.024-.037-.035-.047-.09-.029-.162.031-.122.152-.327.374-.614.23-.296.576-.699 1.077-1.237A70.304 70.304 0 0 1 4.62 1.557a.463.463 0 0 1 .657 0zm-.089.088a.338.338 0 0 0-.48 0 70.263 70.263 0 0 0-1.745 1.799c-.498.536-.843.936-1.07 1.228-.21.272-.324.462-.35.568-.007.026-.01.04-.007.041.003.003.018.001.045-.006.111-.028.306-.143.574-.346.296-.226.701-.57 1.24-1.07A64.355 64.355 0 0 0 5.19 2.126a.338.338 0 0 0 0-.48z"></path><path fill="#fffffe" fill-rule="nonzero" d="M2.005 4.474a.062.062 0 0 0-.088.089l.347.346a.063.063 0 0 0 .088-.088l-.347-.347zM4.677 1.64a.063.063 0 0 0-.089.088l.543.543a.062.062 0 0 0 .089-.088l-.543-.543z"></path><path fill="#fffffe" fill-rule="nonzero" d="M2.46 3.11a.062.062 0 0 0-.03.12s.448.118.614-.339v-.002c.04-.09.617-1.397 1.55-1.17a.062.062 0 0 0 .028-.12C3.59 1.346 2.972 2.744 2.93 2.84a.063.063 0 0 0-.004.008c-.126.35-.466.262-.467.262z"></path><path fill="#fffffe" fill-rule="nonzero" d="M4.002 2.29a.062.062 0 0 0-.089.089l.542.542a.062.062 0 0 0 .089-.089l-.542-.541zM3.748 2.544a.062.062 0 0 0-.088.088l.542.542a.062.062 0 0 0 .088-.088l-.542-.542zM3.502 2.805a.063.063 0 0 0-.089.088l.505.505a.062.062 0 0 0 .089-.088l-.505-.505zM3.253 3.063a.063.063 0 0 0-.088.088l.504.504a.062.062 0 0 0 .088-.088l-.504-.504zM3.026 3.343a.063.063 0 0 0-.088.088l.454.455a.063.063 0 0 0 .089-.089l-.455-.454zM2.775 3.599a.063.063 0 0 0-.088.088l.438.438a.063.063 0 0 0 .088-.088l-.438-.438zM2.536 3.867a.062.062 0 0 0-.088.088l.42.42a.062.062 0 0 0 .088-.089l-.42-.42z"></path></g></svg>